<?xml version="1.0" encoding="UTF-8" standalone="no"?>
<!-- Uploaded to: SVG Repo, www.svgrepo.com, Generator: SVG Repo Mixer Tools -->

<svg
   width="800px"
   height="800px"
   viewBox="0 0 960 960"
   fill="none"
   version="1.1"
   id="svg96"
   sodipodi:docname="piggy-bank-transparent.svg"
   inkscape:version="1.2.2 (732a01da63, 2022-12-09)"
   xmlns:inkscape="http://www.inkscape.org/namespaces/inkscape"
   xmlns:sodipodi="http://sodipodi.sourceforge.net/DTD/sodipodi-0.dtd"
   xmlns="http://www.w3.org/2000/svg"
   xmlns:svg="http://www.w3.org/2000/svg">
  <sodipodi:namedview
     id="namedview98"
     pagecolor="#ffffff"
     bordercolor="#000000"
     borderopacity="0.25"
     inkscape:showpageshadow="2"
     inkscape:pageopacity="0.0"
     inkscape:pagecheckerboard="0"
     inkscape:deskcolor="#d1d1d1"
     showgrid="false"
     inkscape:zoom="1.005"
     inkscape:cx="322.88557"
     inkscape:cy="400.49751"
     inkscape:window-width="1920"
     inkscape:window-height="991"
     inkscape:window-x="-9"
     inkscape:window-y="-9"
     inkscape:window-maximized="1"
     inkscape:current-layer="svg96" />
  <g
     clip-path="url(#clip0_391_472)"
     id="g89"
     transform="translate(-4.7761154,-46.567164)"
     style="fill-opacity:1;fill-rule:evenodd;stroke-width:0.9996;stroke-dasharray:none">
    <path
       d="m 426.591,879.981 c -4.517,0 -9.034,0 -13.551,0 -1.288,-0.194 -2.577,-0.423 -3.872,-0.577 -8.02,-0.96 -16.141,-1.409 -24.054,-2.96 -18.832,-3.678 -28.678,-16.53 -27.188,-35.161 0.604,-7.577 1.792,-15.121 2.96,-22.637 1.758,-11.296 3.731,-22.564 5.624,-33.906 -16.913,-3.866 -33.913,-7.759 -50.248,-11.497 -1.067,8.248 -1.967,16.537 -3.242,24.765 -1.517,9.839 -2.845,19.752 -5.168,29.41 -3.503,14.55 -11.879,25.308 -27.235,28.395 -6.328,1.276 -13.221,1.524 -19.577,0.497 -13.141,-2.127 -26.235,-4.906 -39.1,-8.349 -24.645,-6.597 -36.578,-23.282 -35.128,-48.731 0.893,-15.698 3.47,-31.182 8.101,-46.269 2.651,-8.637 6.181,-16.886 11.114,-24.584 -0.544,-0.409 -0.899,-0.711 -1.282,-0.959 C 178.57,710.511 158.282,687.894 141.55,661.921 110.805,614.196 94.6107,561.652 90.0872,505.297 89.7383,500.914 89.3624,496.532 89,492.156 c 0,-8.658 0,-17.316 0,-25.967 0.1544,-1.006 0.4027,-2.013 0.443,-3.027 0.6174,-15.147 2.3959,-30.161 5.2684,-45.04 7.3486,-38.06 21.3756,-73.282 44.5566,-104.617 0.692,-0.933 0.987,-2.624 0.685,-3.752 -3.537,-13.201 -6,-26.631 -6.745,-40.241 -0.933,-16.98 -1.369,-34 -1.436,-51.007 -0.168,-40.718 3.973,-81.067 11.335,-121.1009 1.37,-7.4563 5.698,-12.2819 12.551,-15.047 1.812,-0.7315 3.738,-1.1745 5.61,-1.7516 2.255,0 4.517,0 6.772,0 7.188,1.2818 12.282,5.7315 16.759,11.1074 0.241,0.2885 0.51,0.557 0.765,0.8255 28.147,29.5636 56.288,59.1406 84.456,88.6916 9.034,9.483 17.839,19.141 24.027,30.825 0.94,1.772 1.98,1.134 3.248,0.738 10.752,-3.375 21.423,-7.013 32.275,-10.013 22.336,-6.181 45.034,-10.423 68.222,-11.644 6.101,-0.322 12.228,-0.242 18.295,-0.826 14.685,-1.409 29.336,-3.161 44.02,-4.611 2.182,-0.214 3.88,-0.765 5.517,-2.248 24.208,-21.859 50.792,-40.295 79.926,-54.993 2.725,-1.376 5.745,-2.423 8.745,-2.953 12.135,-2.134 22.41,4.765 24,16.013 2.376,16.752 4.645,33.51 6.88,50.282 0.214,1.618 0.859,2.208 2.409,2.477 3.329,0.577 6.624,1.355 9.926,2.087 40.967,9.06 80.114,23.054 116.839,43.483 43.973,24.456 81.477,56.248 109.899,98.101 26,38.288 41.833,80.308 45.598,126.644 0.288,3.544 0.684,7.081 1.033,10.624 0,7.718 0,15.43 0,23.148 -0.55,5.778 -1.047,11.564 -1.651,17.342 -3.496,33.631 -12.98,65.53 -27.966,95.799 -17.947,36.235 -42.832,67.094 -73.168,93.657 -1.725,1.511 -2.309,3.027 -2.342,5.296 -0.135,10.154 -0.202,20.329 -0.866,30.456 -0.946,14.45 -2.074,28.893 -3.718,43.275 -1.128,9.859 -2.745,19.739 -5.101,29.369 -2.51,10.242 -8.812,17.96 -18.725,22.309 -6.57,2.879 -13.51,3.899 -20.617,4.014 -14.316,0.241 -28.201,-2.772 -42.128,-5.524 -5.711,-1.127 -9.604,-4.45 -11.282,-9.859 -1.006,-3.248 -1.476,-6.839 -1.308,-10.235 0.382,-7.691 1.423,-15.349 1.993,-23.04 0.544,-7.289 0.826,-14.604 1.248,-22.269 -6.174,2.376 -12.04,4.584 -17.845,6.933 -0.544,0.222 -0.967,1.296 -1.041,2.014 -1.04,10.758 -1.865,21.543 -3.047,32.288 -1.026,9.356 -2.664,18.618 -6.637,27.269 -7.148,15.577 -19.094,24.517 -36.396,25.067 -9.846,0.309 -19.752,-0.202 -29.591,-0.853 -6.946,-0.456 -13.751,-2.053 -20.006,-5.395 -7,-3.745 -11.484,-9.47 -11.531,-17.47 -0.053,-9.564 0.665,-19.141 1.323,-28.692 0.281,-4.06 1.268,-8.073 1.852,-11.61 -24.41,0 -48.591,0 -71.906,0 -1.685,11.53 -2.987,22.637 -5,33.604 -1.886,10.255 -4.49,20.376 -9.483,29.684 -4.665,8.692 -11.772,14.255 -21.383,16.544 -2.644,0.624 -5.315,1.101 -7.966,1.644 z M 388.007,246.163 c -2.302,-2.094 -4.638,-4.356 -7.134,-6.417 -0.806,-0.664 -2.121,-1.281 -3.061,-1.114 -8.315,1.51 -16.658,2.96 -24.879,4.886 -43.94,10.302 -84.758,28.054 -123.235,51.517 -21.309,12.993 -39.181,29.463 -53.007,50.242 -22.416,33.704 -32.698,71.281 -35.188,111.288 -1.785,28.718 0.651,57.128 6.792,85.215 6.92,31.664 18.208,61.597 36.168,88.752 15.933,24.08 35.772,44.026 61.779,57.281 15.288,7.792 31.523,13.135 47.711,18.658 61.571,21.007 124.571,34.316 189.805,36.074 37.477,1.013 74.631,-1.389 111.229,-9.919 62.778,-14.631 116.396,-45.276 159.698,-93.121 33.959,-37.524 54.691,-81.309 59.362,-132.134 3.201,-34.853 -2.094,-68.443 -15.651,-100.665 -16.544,-39.335 -43.268,-70.644 -76.993,-96.241 -34.215,-25.967 -72.651,-43.309 -113.846,-54.86 -5.107,-1.429 -10.262,-2.691 -15.382,-4.026 -0.759,2.409 0.067,3.382 2.033,4.067 5.235,1.812 10.43,3.751 15.577,5.798 26.859,10.698 52.497,23.866 77.349,38.604 4.343,2.578 7.423,6.121 8.161,11.235 1.114,7.705 -1.711,13.94 -7.939,18.39 -6.067,4.342 -12.322,3.51 -18.504,-0.188 -18.966,-11.343 -38.436,-21.745 -58.644,-30.718 -4.96,-2.202 -9.986,-4.255 -15.282,-6.511 0.134,2.987 0.383,5.511 0.342,8.027 -0.107,7.443 -4.436,13.188 -11.422,14.947 -7.39,1.859 -13.927,0.04 -19.631,-4.994 -2.222,-1.959 -3.034,-4.174 -2.651,-7.221 2.678,-21.389 1.718,-42.819 0.288,-64.235 -1.134,-17.081 -2.577,-34.134 -3.61,-51.222 -0.806,-13.349 -12.913,-20.12 -24.557,-13.496 -19.229,10.933 -36.732,24.168 -52.739,39.409 -22.886,21.792 -41.865,46.745 -59.429,72.893 -6.859,10.215 -3.188,20.805 3.798,26.799 0.611,0.523 1.208,1.06 1.839,1.617 -6.631,5.107 -17.006,5.376 -26.02,0.208 -12.966,-7.436 -18.691,-18.255 -14.053,-33.497 -0.846,0.182 -1.383,0.289 -1.906,0.416 -11.403,2.799 -22.752,5.833 -34.215,8.343 -11.98,2.624 -24.114,4.047 -36.416,2.59 -4.356,-0.516 -7.779,-2.469 -9.188,-6.785 -1.443,-4.429 0.168,-8.134 3.537,-11.114 1.194,-1.054 2.523,-1.96 3.845,-2.866 13.443,-9.228 28.524,-14.671 44.155,-18.691 10.342,-2.644 20.798,-4.839 31.114,-7.221 z m -206.235,24.221 c 22.604,-18.128 48.409,-29.846 73.899,-41.215 -24.993,-26.1 -49.892,-52.1 -75.08,-78.409 -4.618,17.792 -3.752,99.047 1.181,119.624 z m 94.503,491.315 c -14.617,-5.953 -28.919,-11.778 -43.335,-17.644 -1.014,5.275 -2.114,10.779 -3.121,16.295 -1.725,9.51 -3.598,19 -5.034,28.551 -1.872,12.449 3.074,18.53 15.564,20.094 7.342,0.919 14.644,2.141 21.973,3.188 0.906,0.127 1.846,0.02 3.087,0.02 0.873,-6.168 1.799,-12.188 2.571,-18.228 1.409,-11.155 1.986,-22.504 8.295,-32.276 z m 445.45,-21.375 c -1.134,0.201 -1.436,0.181 -1.658,0.302 -8.074,4.597 -16.168,9.167 -24.174,13.872 -0.779,0.456 -1.47,1.732 -1.51,2.658 -0.45,10.51 -0.833,21.02 -1.081,31.537 -0.074,3.241 0.329,6.49 0.524,9.886 8.02,0 15.677,0 23.859,0 1.335,-19.302 2.671,-38.571 4.04,-58.255 z m -152.879,81.825 c 5.282,0 10.248,-0.127 15.201,0.034 5.04,0.167 10.074,0.631 15.268,0.973 2.759,-4.067 5.725,-26.41 4.457,-34.383 -10.054,1.792 -20.108,3.564 -30.155,5.416 -0.563,0.101 -1.315,0.792 -1.456,1.336 -2.174,8.476 -3.772,17.027 -3.315,26.624 z m -170.309,10.846 c 5.711,0.671 10.758,1.121 15.758,1.912 2.806,0.443 3.886,-0.704 4.416,-3.201 1.443,-6.879 3.235,-13.691 4.41,-20.617 0.933,-5.49 1.168,-11.108 1.718,-16.732 -7.738,-1.094 -14.96,-2.121 -22.094,-3.127 -1.409,13.973 -2.792,27.745 -4.208,41.765 z"
       fill="#000000"
       id="path51"
       style="fill-opacity:1;fill-rule:evenodd;stroke-width:0.9996;stroke-dasharray:none" />
    <path
       d="m 610.054,393.242 c 9.846,-0.705 18.826,-1.343 28.061,-2 0.778,-5.235 1.563,-10.779 2.449,-16.302 0.39,-2.41 0.933,-4.792 1.504,-7.168 1.469,-6.114 4.516,-9.094 9.389,-9.262 5.195,-0.181 10.919,3.584 12.087,8.859 1.087,4.92 1.396,10.041 1.712,15.094 0.268,4.302 0.053,8.638 0.053,12.725 5.161,1.94 10.088,3.537 14.799,5.611 16.295,7.181 29.201,18.335 38.544,33.537 2.785,4.537 2.396,9.255 -1.034,13.282 -3.846,4.523 -8.537,4.966 -13.483,1.644 -8.658,-5.812 -17.316,-11.624 -26.208,-17.067 -4.289,-2.624 -9.101,-4.396 -13.658,-6.544 -1.711,3.363 -5.718,56.248 -4.987,64.107 3.309,-0.416 6.611,-0.966 9.933,-1.228 18.692,-1.476 35.551,2.786 49.081,16.51 14.027,14.229 19.778,31.678 17.805,51.296 -4.839,48.02 -39.389,90.329 -85.812,105.711 -2.416,0.799 -3.517,1.812 -3.919,4.503 -1.779,11.987 -3.859,23.927 -5.9,35.873 -0.785,4.584 -2.422,6.349 -5.483,6.309 -3.637,-0.047 -6.309,-2.671 -6.617,-7.041 -0.732,-10.322 -1.269,-20.651 -1.886,-30.979 -0.054,-0.92 -0.094,-1.839 -0.148,-2.766 -6.376,0.47 -12.53,0.927 -18.926,1.396 -0.208,5.893 -0.436,11.685 -0.617,17.484 -0.121,3.946 -0.027,7.912 -0.309,11.845 -0.564,7.859 -7.598,12.336 -14.94,9.651 -4.302,-1.57 -6.691,-5.174 -6.852,-10.322 -0.289,-9.215 -0.638,-18.429 -0.839,-27.644 -0.047,-2.114 -0.557,-3.027 -2.886,-3.416 -18.342,-3.074 -35.577,-9.322 -51.664,-18.665 -10.396,-6.04 -15,-15.537 -12.658,-25.892 2.705,-11.98 12.228,-20.544 23.866,-21.43 5.12,-0.389 9.758,1.208 14.416,3.188 7.939,3.376 16.033,6.389 24.074,9.517 0.845,0.329 1.771,0.443 2.872,0.705 0.06,-1.027 0.154,-1.759 0.134,-2.484 -0.423,-17.872 -0.912,-35.738 -1.235,-53.61 -0.04,-2.269 -1.255,-2.511 -2.865,-2.94 -18.457,-5 -33.739,-14.732 -44.356,-30.859 -13.362,-20.289 -14.55,-42.161 -6.644,-64.55 9.08,-25.739 26.087,-44.725 50.852,-56.517 1.638,-0.779 2.134,-1.725 2.161,-3.43 0.101,-8.369 0.134,-16.751 0.53,-25.114 0.504,-10.57 8.685,-16.658 18.725,-14.228 6.45,1.557 10.705,6.644 10.859,13.389 0.134,6.349 0.02,12.738 0.02,19.222 z m 26.658,27.684 c -7.919,0.034 -15.423,1.349 -22.785,3.779 -2.087,0.691 -2.866,1.597 -2.853,3.939 0.101,24.638 0.054,49.282 0.047,73.92 0,0.906 0,1.812 0,3.403 7.336,-2.477 14.182,-4.745 20.967,-7.162 0.59,-0.208 1.134,-1.416 1.174,-2.181 1.188,-23.194 2.322,-46.389 3.437,-69.584 0.094,-1.946 0.013,-3.899 0.013,-6.114 z m 15.638,183.53 c 11.805,-6.845 24.188,-21.872 28.953,-34.718 2.295,-6.181 3.228,-12.523 2.765,-19.1 -0.584,-8.195 -4.792,-11.9 -12.799,-10.537 -4.497,0.765 -8.819,2.517 -13.262,3.698 -1.758,0.47 -2.282,1.382 -2.376,3.161 -0.805,14.933 -1.724,29.852 -2.597,44.785 -0.248,4.107 -0.45,8.215 -0.684,12.711 z m -42.088,-46.033 c -0.469,19.758 -0.946,39.523 -1.436,59.946 5.866,-0.805 11.235,-1.463 16.564,-2.369 0.651,-0.107 1.483,-1.53 1.53,-2.389 1.013,-17.53 1.933,-35.074 2.832,-52.611 0.114,-2.195 0.014,-4.396 0.014,-6.497 -6.477,1.302 -12.799,2.571 -19.504,3.92 z M 579.464,448.624 c -6.591,6.101 -11.376,13.161 -13.611,21.739 -2.577,9.926 -0.463,18.993 5.235,27.322 2.08,3.033 4.845,5.349 8.369,7.053 0.007,-18.966 0.007,-37.537 0.007,-56.114 z"
       fill="#000000"
       id="path65"
       style="fill-opacity:1;fill-rule:evenodd;stroke-width:0.9996;stroke-dasharray:none" />
    <path
       d="m 317.44497,607.75797 c -33.704,-0.712 -61.979,-5.108 -88.899,-16.369 -14.886,-6.229 -28.658,-14.209 -39.161,-26.846 -13.027,-15.671 -18.631,-33.946 -15.819,-53.899 6.43,-45.598 32.631,-75.182 76.208,-88.92 32.732,-10.315 65.785,-10.188 98.926,-0.637 7.98,2.302 16.276,3.637 24.088,6.657 17.718,6.853 33.557,16.544 46,31.134 30.785,36.101 26.57,85.698 -9.786,116.282 -19.805,16.665 -42.778,26.322 -68.174,30.269 -9.262,1.443 -18.685,1.879 -23.383,2.329 z m -5.073,-46.859 c 11.55,-0.094 22.758,-1.202 33.644,-4.497 13.503,-4.087 25.919,-10.161 35.611,-20.758 6.657,-7.282 10.255,-15.833 8.704,-25.813 -0.637,-4.107 -2.543,-8.006 -3.691,-12.053 -4.309,-15.161 -14.993,-24.725 -28.43,-31.416 -7.872,-3.92 -16.342,-6.651 -24.536,-9.94 -2.148,-0.859 -4.182,-2.208 -6.403,-2.638 -23.027,-4.449 -45.658,-2.872 -67.779,5.001 -19.067,6.778 -32.859,19.355 -40.899,37.986 -3.228,7.477 -4.631,15.302 -2.94,23.416 2.443,11.725 10.081,19.255 20.645,23.671 24.382,10.202 49.711,16.517 76.074,17.041 z"
       fill="#000000"
       id="path67"
       style="fill-opacity:1;fill-rule:evenodd;stroke-width:0.9996;stroke-dasharray:none" />
    <path
       d="m 376.536,349.094 c 8.973,0.248 16.456,3.577 22.758,9.852 4.041,4.027 7.732,8.175 9.188,13.899 4.108,16.128 -6.503,33.323 -23.275,37.638 -13.503,3.476 -27.611,-1.832 -34.55,-12.993 -7.812,-12.564 -6.9,-27.289 2.517,-37.947 6.201,-7.006 14.1,-10.409 23.362,-10.449 z"
       fill="#000000"
       id="path69"
       style="fill-opacity:1;fill-rule:evenodd;stroke-width:0.9996;stroke-dasharray:none" />
    <path
       d="m 200.455,358.906 c 15.1,0.524 26.798,11.624 27.584,26.564 0.154,2.899 0.711,5.906 0.174,8.691 -0.617,3.235 -1.678,6.658 -3.53,9.322 -3.933,5.658 -7.759,11.497 -14.483,14.611 -5.021,2.322 -10.101,2.524 -15.114,1.108 -13.846,-3.927 -22.396,-15.121 -23.517,-29.47 -0.913,-11.692 7.362,-24.134 19.1,-28.497 3.121,-1.168 6.517,-1.57 9.786,-2.329 z"
       fill="#000000"
       id="path71"
       style="fill-opacity:1;fill-rule:evenodd;stroke-width:0.9996;stroke-dasharray:none" />
    <path
       d="m 512.47,229.16 c 15.047,0.081 23.57,14.108 17.409,26.403 -1.798,3.597 -4.033,7.04 -6.49,10.228 -7.114,9.235 -14.369,18.369 -21.738,27.403 -1.939,2.376 -4.308,4.51 -6.812,6.288 -5.792,4.101 -12.691,4.061 -18.241,0.262 -5.229,-3.584 -8.047,-10.376 -6.101,-16.946 1.255,-4.242 3.416,-8.336 5.785,-12.114 6.45,-10.262 13.302,-20.262 19.859,-30.463 4.228,-6.578 9.691,-10.92 16.329,-11.061 z"
       fill="#000000"
       id="path73"
       style="fill-opacity:1;fill-rule:evenodd;stroke-width:0.9996;stroke-dasharray:none" />
    <path
       d="m 355.221,503.16 c -0.658,11.255 -4.215,20.335 -9.698,28.543 -3.946,5.9 -10.154,7.477 -16.973,6.135 -6.315,-1.242 -10.148,-5.101 -11.752,-11.443 -1.443,-5.725 -3.51,-11.289 -5.013,-17 -2.175,-8.289 -1.805,-16.329 4.141,-23.121 5.664,-6.47 13.013,-9.047 21.362,-6.933 8.819,2.228 14.235,8.443 16.906,16.967 0.792,2.55 0.812,5.349 1.027,6.852 z"
       fill="#000000"
       id="path85"
       style="fill-opacity:1;fill-rule:evenodd;stroke-width:0.9996;stroke-dasharray:none" />
    <path
       d="m 288.744,506.511 c -0.624,7.839 -2.765,15.403 -6.939,22.228 -3.49,5.698 -10.148,8.047 -16.423,6.302 -6.376,-1.771 -10.215,-6.892 -10.785,-13.919 -0.168,-2.04 -0.786,-4.195 -1.745,-6 -6.363,-11.967 -1.759,-25.275 10.208,-29.148 10.825,-3.503 23.396,4.564 25.188,16.188 0.208,1.389 0.315,2.792 0.496,4.349 z"
       fill="#000000"
       id="path87"
       style="fill-opacity:1;fill-rule:evenodd;stroke-width:0.9996;stroke-dasharray:none" />
  </g>
  <defs
     id="defs94">
    <linearGradient
       id="linearGradient5041"
       inkscape:swatch="solid">
      <stop
         style="stop-color:#ffffff;stop-opacity:1;"
         offset="0"
         id="stop5039" />
    </linearGradient>
    <clipPath
       id="clip0_391_472">
      <rect
         width="781.879"
         height="800"
         fill="white"
         transform="translate(89 80)"
         id="rect91" />
    </clipPath>
  </defs>
</svg>
